<svg xmlns="http://www.w3.org/2000/svg" id="Layer_2" data-name="Layer 2" viewBox="0 0 134.25 132.28">
  <defs>
    <style>
      .cls-1 {
        fill: #c2c1c0;
      }

      .cls-1, .cls-2 {
        stroke-width: 0px;
      }

      .cls-2 {
        fill: #598a09;
      }
    </style>
  </defs>
  <g id="Layer_1-2" data-name="Layer 1">
    <g>
      <path class="cls-1" d="m119.46,76.26c.01,15.31.04,30.62.04,45.93,0,6.24-3.8,10.07-9.96,10.08-5.87,0-11.74.01-17.62,0-5.72-.02-9.46-3.8-9.59-9.44-.17-7.34.56-14.7-.48-22.02-.44-3.1-2.49-5.14-5.64-5.55-5.93-.77-11.87-.78-17.81-.02-3.59.46-5.39,2.22-5.93,5.93-1,6.72-.33,13.49-.44,20.23-.12,7.52-3.36,10.88-10.84,10.88-5.28,0-10.55,0-15.83,0-6.71,0-10.49-3.76-10.5-10.56-.03-14.71-.01-29.43-.01-44.14,0-.5-.04-.99-.06-1.49.67-.71,1.29-1.48,2.03-2.13,8.09-7.07,16.18-14.12,24.29-21.16,8.11-7.04,16.26-14.04,24.35-21.1,1.11-.97,1.9-1.39,3.27-.22,9.52,8.14,18.66,16.71,28.3,24.73,7.71,6.41,14.97,13.35,22.43,20.06Z"/>
      <path class="cls-2" d="m119.46,63.26c-7.46-6.71-14.73-13.65-22.43-20.06-9.64-8.02-18.77-16.59-28.3-24.73-1.37-1.17-2.16-.75-3.27.22-8.1,7.06-16.24,14.06-24.35,21.1-8.11,7.04-16.2,14.09-24.29,21.16-.73.64-1.35,1.41-2.03,2.13-1.91,1.2-3.29,3.22-5.68,3.68-3.51.67-6.95-1.01-8.46-4.13-1.35-2.79-.57-6.33,2.07-8.65,8.07-7.09,16.17-14.14,24.27-21.21,11.32-9.88,22.65-19.73,33.94-29.64,4.67-4.09,7.67-4.18,12.26-.18,19.03,16.61,38.05,33.23,57.09,49.82,2.16,1.88,4.03,3.84,3.97,6.98-.05,3.02-1.56,5.14-4.14,6.4-2.57,1.26-5.18,1.1-7.57-.69-1.01-.76-1.73-1.93-3.08-2.2Z"/>
    </g>
  </g>
</svg>
