<svg xmlns="http://www.w3.org/2000/svg" id="Layer_2" data-name="Layer 2" viewBox="0 0 12 12">
  <defs>
    <style>
      .cls-1 {
        fill: #c1c1c1;
      }

      .cls-1, .cls-2 {
        stroke-width: 0px;
      }

      .cls-2 {
        fill: #598a09;
      }
    </style>
  </defs>
  <g id="Layer_1-2" data-name="Layer 1">
    <g>
      <path class="cls-2" d="m.33,3.51l5.12,2.37c.35.16.75.16,1.1,0l5.12-2.37c.2-.09.33-.29.33-.51s-.13-.42-.33-.51L6.55.12c-.35-.16-.75-.16-1.1,0L.33,2.49c-.2.09-.33.29-.33.51s.13.42.33.51Z"/>
      <path class="cls-1" d="m11.67,5.49l-1.25-.58-3.56,1.65c-.55.25-1.18.25-1.73,0l-3.56-1.65-1.25.58c-.2.09-.33.29-.33.51s.13.42.33.51l5.12,2.37c.35.16.75.16,1.1,0l5.12-2.37c.2-.09.33-.29.33-.51s-.13-.42-.33-.51Z"/>
      <path class="cls-2" d="m11.67,8.49l-1.25-.58-3.56,1.65c-.55.25-1.18.25-1.73,0l-3.56-1.65-1.25.58c-.2.09-.33.29-.33.51s.13.42.33.51l5.12,2.37c.35.16.75.16,1.1,0l5.12-2.37c.2-.09.33-.29.33-.51s-.13-.42-.33-.51Z"/>
    </g>
  </g>
</svg>
